M48
INCH,TZ
T1C0.0079
T2C0.0118
T3C0.0118
T4C0.0197
T5C0.0256
T6C0.0394
T7C0.0461
T8C0.1181
%
G90
G05
T1
X67034Y-32392
X67260Y-32018
X67260Y-32766
X67486Y-32392
T2
X65000Y-25000
X65000Y-25500
X65000Y-26000
X65000Y-26500
X65000Y-27000
X65000Y-27500
X65000Y-28000
X65000Y-28500
X65000Y-29000
X65000Y-29500
X65000Y-30000
X65000Y-30500
X65000Y-40500
X65000Y-41000
X65000Y-41500
X65500Y-25000
X65500Y-25500
X65500Y-26000
X65500Y-26500
X65500Y-27000
X65500Y-27500
X65500Y-28000
X65500Y-40500
X65500Y-41000
X65500Y-41500
X65700Y-39300
X66000Y-25000
X66000Y-25500
X66000Y-26000
X66000Y-26500
X66000Y-27000
X66000Y-27500
X66000Y-40500
X66000Y-41000
X66000Y-41500
X66500Y-25000
X66500Y-25500
X66500Y-26000
X66500Y-26500
X66500Y-27000
X66500Y-41000
X66500Y-41500
X67000Y-24500
X67000Y-25000
X67000Y-25500
X67000Y-26000
X67000Y-26500
X67000Y-27000
X67000Y-41500
X67000Y-42000
X67320Y-34400
X67500Y-42000
X67500Y-42500
X67500Y-43000
X67500Y-43500
X67500Y-44000
X68000Y-42500
X68000Y-43000
X68000Y-43500
X68000Y-44000
X68020Y-39140
X68300Y-29900
X68390Y-32400
X68400Y-33470
X68500Y-42500
X68500Y-43000
X68500Y-43500
X68500Y-44000
X68900Y-27860
X69000Y-42500
X69000Y-43000
X69000Y-43500
X69000Y-44000
X69120Y-27580
X69280Y-38220
X69500Y-42500
X69500Y-43000
X69500Y-43500
X69500Y-44000
X70000Y-23500
X70000Y-24000
X70000Y-24500
X70000Y-42500
X70000Y-43000
X70000Y-43500
X70000Y-44000
X70400Y-29400
X70500Y-23500
X70500Y-24000
X70500Y-24500
X70570Y-23170
X70630Y-37864
X71000Y-23500
X71000Y-24000
X71000Y-24500
X71063Y-38189
X71171Y-41417
X71220Y-42835
X71240Y-37244
X71500Y-24000
X71500Y-24500
X71594Y-38228
X71717Y-42433
X72185Y-42835
X72350Y-29200
X72465Y-37047
X72678Y-42431
X72975Y-26367
X73160Y-42740
X73200Y-41420
X73340Y-36740
X73356Y-37165
X73400Y-28900
X73600Y-27600
X73600Y-35200
X73620Y-37720
X73700Y-34750
X73750Y-33650
X73780Y-39980
X73800Y-28950
X74000Y-27200
X74000Y-29400
X74050Y-36900
X74061Y-33432
X74203Y-37451
X74500Y-33580
X74500Y-35520
X74620Y-40760
X75050Y-37050
X75210Y-26220
X75285Y-39135
X75600Y-29850
X75760Y-41020
X75900Y-40400
X75950Y-28850
X75965Y-36969
X76437Y-43484
X76457Y-42776
X76531Y-40390
X76650Y-38750
X76850Y-30250
X77028Y-35276
X77067Y-41102
X77069Y-24320
X77120Y-38660
X77120Y-40360
X77140Y-37960
X77205Y-34921
X77489Y-29903
X77509Y-30317
X77529Y-28210
X77548Y-28781
X77638Y-40458
X77745Y-25199
X77800Y-31250
X77800Y-33150
X77922Y-26380
X78107Y-35495
X78169Y-35098
X78171Y-22548
X78465Y-34370
X78631Y-26399
X78640Y-40380
X78828Y-28742
X78898Y-36437
X78898Y-37067
X78898Y-37697
X78917Y-33957
X79025Y-24244
X79163Y-28821
X79291Y-34173
X79420Y-39180
X79440Y-41580
X79460Y-38440
X79585Y-27284
X79665Y-33976
X79665Y-35295
X79665Y-36437
X79665Y-37067
X79680Y-37720
X79800Y-33050
X79900Y-41700
X80118Y-34350
X80200Y-39180
X80260Y-33560
X80450Y-36400
X80472Y-37697
X80500Y-37050
X80600Y-34134
X80620Y-39180
X80846Y-34311
X80900Y-31300
X80988Y-38324
X81142Y-35069
X81171Y-34390
X81200Y-33400
X81250Y-35750
X81250Y-37650
X81289Y-26006
X81358Y-39193
X81379Y-38287
X81400Y-31100
X81526Y-34390
X81690Y-40670
X81702Y-30651
X81880Y-39200
X81978Y-40128
X81983Y-28102
X82047Y-35807
X82047Y-36437
X82047Y-37067
X82047Y-37800
X82087Y-34390
X82618Y-41949
X82618Y-43110
X82648Y-39350
X82835Y-35807
X82835Y-36437
X82835Y-37067
X82835Y-37697
X82863Y-25809
X82922Y-32541
X82960Y-39880
X83000Y-30780
X83001Y-30139
X83005Y-27824
X83159Y-28230
X83386Y-41969
X83500Y-22467
X83500Y-23500
X83500Y-24500
X83573Y-39833
X83750Y-30850
X84000Y-23003
X84000Y-24000
X84050Y-28300
X84134Y-42008
X84150Y-30850
X84303Y-33987
X84331Y-34705
X84400Y-28300
X84409Y-35886
X84429Y-37028
X84469Y-36240
X84488Y-34409
X84500Y-22467
X84500Y-23500
X84500Y-24500
X84500Y-39000
X84500Y-41000
X84500Y-43000
X84550Y-30850
X84626Y-35650
X84674Y-32763
X84685Y-36024
X84705Y-34193
X84733Y-36807
X84744Y-35059
X84744Y-35354
X84750Y-28300
X84902Y-33957
X84902Y-34803
X84902Y-35807
X84950Y-30850
X84950Y-32517
X84964Y-23003
X85000Y-24000
X85000Y-25000
X85000Y-26000
X85000Y-27000
X85000Y-36555
X85000Y-38000
X85000Y-40000
X85000Y-42000
X85000Y-44000
X85079Y-35610
X85100Y-28300
X85118Y-34567
X85157Y-33760
X85197Y-32185
X85242Y-33015
X85247Y-36316
X85256Y-31811
X85276Y-35413
X85315Y-30846
X85335Y-31496
X85335Y-34370
X85354Y-33543
X85374Y-31181
X85481Y-36077
X85492Y-35177
X85497Y-40990
X85500Y-23500
X85500Y-24500
X85500Y-25500
X85500Y-26500
X85500Y-27500
X85500Y-28500
X85500Y-37000
X85500Y-39000
X85500Y-43000
X85502Y-22467
X85531Y-32677
X85551Y-34154
X85571Y-33346
X85709Y-34980
X85719Y-35835
X85787Y-28898
X85787Y-33130
X85787Y-33898
X85866Y-32677
X85959Y-35590
X85964Y-23003
X86000Y-24000
X86000Y-25000
X86000Y-26000
X86000Y-27000
X86000Y-28000
X86000Y-36000
X86000Y-38000
X86000Y-40000
X86000Y-42000
X86000Y-44000
X86004Y-34724
X86043Y-32933
X86043Y-33642
X86146Y-35325
X86220Y-32697
X86240Y-34508
X86280Y-33425
X86422Y-35075
X86476Y-34272
X86500Y-23500
X86500Y-24500
X86500Y-25500
X86500Y-26500
X86500Y-27500
X86500Y-37000
X86500Y-39000
X86500Y-41000
X86500Y-43000
X86502Y-22467
X86516Y-33189
X86651Y-34853
X86693Y-28917
X86693Y-34035
X86752Y-32972
X86855Y-34616
X86909Y-33839
X86949Y-32657
X86964Y-23003
X86988Y-28937
X87000Y-24000
X87000Y-25000
X87000Y-26000
X87000Y-27000
X87000Y-28000
X87000Y-36000
X87000Y-38000
X87000Y-40000
X87000Y-42000
X87000Y-44000
X87028Y-32008
X87028Y-32303
X87102Y-34396
X87106Y-33642
X87191Y-30512
X87205Y-29134
X87205Y-30124
X87215Y-30986
X87218Y-31326
X87224Y-31693
X87245Y-29754
X87269Y-29440
X87283Y-33406
X87298Y-26479
X87300Y-33000
X87315Y-34153
X87340Y-23561
X87402Y-24500
X87402Y-25500
X87421Y-32539
X87480Y-31900
X87500Y-27500
X87500Y-32224
X87500Y-35000
X87500Y-37000
X87500Y-39000
X87500Y-41000
X87500Y-43000
X87502Y-22467
X87520Y-28524
X87559Y-30300
X87571Y-33931
X87795Y-29528
X87809Y-33673
X87874Y-30300
X88000Y-27000
X88000Y-28000
X88000Y-29000
X88000Y-34000
X88000Y-36000
X88000Y-38000
X88000Y-40000
X88000Y-42000
X88000Y-44000
X88020Y-23003
X88020Y-24003
X88020Y-25003
X88020Y-26003
X88100Y-33500
X88189Y-30300
X88400Y-33500
X88484Y-30300
X88500Y-25500
X88500Y-26500
X88500Y-27500
X88500Y-28500
X88500Y-29500
X88500Y-35000
X88500Y-39000
X88500Y-41000
X88500Y-43000
X88588Y-36908
X88700Y-33500
X88800Y-30300
X89000Y-25000
X89000Y-26000
X89000Y-27000
X89000Y-28000
X89000Y-29000
X89000Y-32900
X89000Y-33200
X89000Y-33500
X89000Y-34000
X89000Y-36000
X89000Y-38000
X89000Y-40000
X89000Y-42000
X89000Y-44000
X89100Y-30300
X89300Y-32900
X89400Y-30300
X89500Y-25500
X89500Y-26500
X89500Y-27500
X89500Y-28500
X89500Y-29500
X89500Y-35000
X89500Y-37000
X89500Y-39000
X89500Y-41000
X89500Y-43000
X89600Y-32000
X89600Y-32300
X89600Y-32600
X89600Y-32900
X89700Y-30300
T3
X85871Y-31104
X85871Y-31340
X86108Y-31104
X86108Y-31340
X86344Y-31104
X86344Y-31340
X86580Y-31104
X86580Y-31340
T4
X65110Y-23435
X65110Y-42982
X65369Y-22809
X65369Y-24061
X65369Y-42356
X65369Y-43609
X65995Y-22549
X65995Y-24321
X65995Y-42096
X65995Y-43868
X66622Y-22809
X66622Y-24061
X66622Y-42356
X66622Y-43609
X66881Y-23435
X66881Y-42982
T5
X78655Y-31557
X78970Y-32265
X79285Y-31557
X79600Y-32265
X79915Y-31557
T6
X66284Y-28870
X67284Y-28870
X68070Y-26309
X68284Y-28870
X69070Y-26309
X75720Y-30700
X75720Y-31700
X75720Y-32700
X84100Y-25420
X84100Y-26420
X84100Y-27420
T7
X65814Y-35600
X65814Y-36600
T8
X65995Y-23435
X65995Y-42982
T0
M30
