M48
INCH,TZ
T1C0.0118
%
G90
G05
T1
X67100Y-30760
X69168Y-29809
X69600Y-31520
X70652Y-26052
X70748Y-33400
X72520Y-33400
X72778Y-28700
X73229Y-32200
X75900Y-28140
X76100Y-36450
X76700Y-33300
X77174Y-25415
X78071Y-43130
X78110Y-42441
X78130Y-37047
X78130Y-38406
X78237Y-27699
X78540Y-41720
X82300Y-33080
X86447Y-28534
T0
M30
