M48
; DRILL file {KiCad 7.0.9} date Fri Apr 19 14:00:50 2024
; FORMAT={-:-/ absolute / metric / decimal}
; #@! TF.CreationDate,2024-04-19T14:00:50+02:00
; #@! TF.GenerationSoftware,Kicad,Pcbnew,7.0.9
; #@! TF.FileFunction,Plated,1,4,PTH
FMAT,2
METRIC
; #@! TA.AperFunction,Plated,PTH,ComponentDrill
T1C0.200
; #@! TA.AperFunction,Plated,PTH,ViaDrill
T2C0.300
; #@! TA.AperFunction,Plated,PTH,ComponentDrill
T3C0.300
; #@! TA.AperFunction,Plated,PTH,ComponentDrill
T4C0.500
; #@! TA.AperFunction,Plated,PTH,ComponentDrill
T5C0.650
; #@! TA.AperFunction,Plated,PTH,ComponentDrill
T6C1.000
; #@! TA.AperFunction,Plated,PTH,ComponentDrill
T7C1.170
; #@! TA.AperFunction,Plated,PTH,ComponentDrill
T8C3.000
%
G90
G05
T1
X173.263Y-82.276
X173.838Y-81.326
X173.838Y-83.226
X174.413Y-82.276
T2
X168.097Y-63.5
X168.097Y-64.77
X168.097Y-66.04
X168.097Y-67.31
X168.097Y-68.58
X168.097Y-69.85
X168.097Y-71.12
X168.097Y-72.39
X168.097Y-73.66
X168.097Y-102.87
X168.097Y-104.14
X168.097Y-105.41
X169.367Y-63.5
X169.367Y-64.77
X169.367Y-66.04
X169.367Y-67.31
X169.367Y-68.58
X169.367Y-102.87
X169.367Y-104.14
X169.367Y-105.41
X169.418Y-69.85
X169.418Y-71.12
X169.418Y-72.39
X169.875Y-99.822
X170.637Y-63.5
X170.637Y-64.77
X170.637Y-66.04
X170.637Y-67.31
X170.637Y-68.58
X170.637Y-102.87
X170.637Y-104.14
X170.637Y-105.41
X170.688Y-69.85
X171.196Y-79.248
X171.907Y-63.5
X171.907Y-64.77
X171.907Y-66.04
X171.907Y-67.31
X171.907Y-68.58
X171.907Y-69.85
X171.907Y-104.14
X171.907Y-105.41
X173.177Y-62.23
X173.177Y-63.5
X173.177Y-64.77
X173.177Y-66.04
X173.177Y-67.31
X173.177Y-68.58
X173.177Y-69.85
X173.177Y-105.41
X173.177Y-106.68
X174.447Y-106.68
X174.447Y-107.95
X174.447Y-109.22
X174.447Y-110.49
X174.447Y-111.76
X175.717Y-107.95
X175.717Y-109.22
X175.717Y-110.49
X175.717Y-111.76
X175.768Y-99.416
X176.708Y-82.296
X176.733Y-85.014
X176.987Y-107.95
X176.987Y-109.22
X176.987Y-110.49
X176.987Y-111.76
X178.257Y-107.95
X178.257Y-109.22
X178.257Y-110.49
X178.257Y-111.76
X178.308Y-91.694
X178.774Y-77.724
X178.816Y-72.898
X178.968Y-97.079
X179.324Y-78.486
X179.527Y-107.95
X179.527Y-109.22
X179.527Y-110.49
X179.527Y-111.76
X179.578Y-58.166
X179.781Y-80.061
X179.959Y-104.013
X180.797Y-107.95
X180.797Y-109.22
X180.797Y-110.49
X180.797Y-111.76
X181.102Y-69.85
X181.813Y-74.676
X182.397Y-96.175
X182.698Y-84.836
X183.388Y-62.992
X183.497Y-97.0
X183.642Y-61.214
X183.772Y-105.2
X183.897Y-108.8
X183.947Y-94.6
X184.847Y-97.1
X185.159Y-107.781
X186.182Y-73.406
X186.347Y-108.8
X186.766Y-74.168
X187.057Y-94.1
X187.198Y-84.836
X187.599Y-107.775
X187.853Y-73.66
X188.353Y-66.972
X188.824Y-108.56
X188.925Y-105.207
X188.998Y-81.788
X189.281Y-93.32
X189.322Y-94.4
X189.433Y-73.406
X189.941Y-70.104
X189.941Y-89.408
X189.992Y-95.809
X190.195Y-88.265
X190.322Y-85.471
X190.398Y-101.549
X190.449Y-73.533
X190.957Y-69.088
X190.957Y-74.676
X191.084Y-93.726
X191.113Y-84.918
X191.472Y-95.125
X192.227Y-85.293
X192.227Y-90.221
X193.04Y-67.056
X193.624Y-94.107
X193.802Y-110.49
X194.31Y-108.458
X194.564Y-94.234
X195.021Y-75.819
X195.58Y-93.726
X195.783Y-71.476
X195.91Y-73.279
X196.291Y-92.583
X196.522Y-96.93
X197.104Y-96.418
X197.612Y-103.886
X197.739Y-85.598
X197.739Y-98.171
X197.815Y-84.582
X198.196Y-76.835
X198.647Y-89.6
X198.753Y-61.772
X198.757Y-106.426
X198.882Y-98.196
X199.097Y-88.7
X199.136Y-96.266
X199.238Y-64.11
X199.263Y-87.884
X199.82Y-75.954
X199.87Y-77.004
X199.92Y-71.654
X199.97Y-73.104
X200.609Y-79.375
X200.609Y-84.201
X200.92Y-67.004
X201.39Y-90.158
X201.397Y-105.394
X201.397Y-107.442
X201.397Y-109.474
X201.422Y-62.23
X201.447Y-94.1
X201.452Y-97.618
X201.48Y-95.7
X201.547Y-89.15
X201.553Y-57.272
X202.438Y-84.582
X202.65Y-71.04
X202.692Y-86.868
X202.72Y-67.054
X202.776Y-102.837
X203.22Y-73.004
X203.397Y-92.55
X203.397Y-94.15
X203.397Y-95.75
X203.675Y-85.631
X203.721Y-61.579
X204.07Y-73.204
X204.397Y-86.8
X204.724Y-99.517
X204.775Y-105.613
X204.826Y-97.638
X205.143Y-69.3
X205.347Y-86.3
X205.347Y-89.65
X205.347Y-92.55
X205.347Y-94.15
X205.384Y-95.809
X205.486Y-68.326
X205.689Y-83.947
X205.943Y-105.918
X206.551Y-87.252
X206.703Y-99.601
X206.858Y-85.242
X207.34Y-92.456
X207.397Y-95.75
X207.467Y-84.125
X207.467Y-94.107
X207.543Y-99.289
X207.65Y-86.87
X208.347Y-87.15
X208.483Y-79.502
X208.707Y-97.344
X209.097Y-89.075
X209.172Y-87.35
X209.245Y-84.836
X209.372Y-90.805
X209.372Y-95.631
X209.647Y-99.55
X209.652Y-86.563
X209.7Y-97.249
X209.753Y-78.994
X210.072Y-87.35
X210.49Y-103.302
X210.52Y-77.854
X210.972Y-99.568
X211.196Y-66.689
X211.222Y-101.925
X211.234Y-71.378
X211.397Y-90.95
X211.397Y-92.55
X211.397Y-94.15
X211.397Y-96.012
X211.497Y-87.35
X212.039Y-84.023
X212.847Y-106.55
X212.847Y-109.5
X212.922Y-99.95
X213.397Y-90.95
X213.397Y-92.55
X213.397Y-94.15
X213.397Y-95.75
X213.47Y-65.554
X213.62Y-82.654
X213.716Y-101.295
X213.817Y-78.181
X213.82Y-76.554
X213.83Y-70.672
X214.22Y-71.704
X214.797Y-106.6
X215.087Y-57.067
X215.087Y-59.69
X215.087Y-62.23
X215.138Y-86.716
X215.272Y-101.175
X216.357Y-58.427
X216.357Y-60.96
X216.697Y-106.7
X216.916Y-86.106
X217.424Y-92.202
X217.424Y-93.98
X217.627Y-57.067
X217.627Y-59.69
X217.627Y-62.23
X217.627Y-99.06
X217.627Y-104.14
X217.627Y-109.22
X218.186Y-87.884
X218.186Y-88.9
X218.186Y-89.916
X218.186Y-91.44
X218.186Y-93.218
X218.806Y-58.427
X218.897Y-60.96
X218.897Y-63.5
X218.897Y-66.04
X218.897Y-68.58
X218.897Y-71.12
X218.897Y-96.52
X218.897Y-101.6
X218.897Y-106.68
X218.897Y-111.76
X218.948Y-90.678
X218.948Y-92.456
X219.71Y-89.916
X219.71Y-91.694
X220.072Y-81.503
X220.159Y-104.114
X220.167Y-59.69
X220.167Y-62.23
X220.167Y-69.85
X220.167Y-93.98
X220.167Y-99.06
X220.167Y-109.22
X220.172Y-57.067
X220.472Y-89.154
X220.472Y-90.932
X221.183Y-82.398
X221.234Y-88.392
X221.234Y-90.17
X221.346Y-58.427
X221.437Y-60.96
X221.437Y-68.58
X221.437Y-71.12
X221.437Y-74.168
X221.437Y-96.52
X221.437Y-101.6
X221.437Y-106.68
X221.437Y-111.76
X221.615Y-91.44
X221.64Y-83.414
X221.996Y-87.63
X221.996Y-89.408
X222.707Y-69.85
X222.707Y-72.441
X222.707Y-93.98
X222.707Y-99.06
X222.707Y-104.14
X222.707Y-109.22
X222.758Y-86.868
X222.758Y-88.646
X223.012Y-77.216
X223.012Y-78.232
X223.012Y-79.248
X223.012Y-80.264
X223.52Y-81.026
X223.52Y-82.042
X223.52Y-83.058
X223.52Y-84.074
X223.52Y-85.09
X223.52Y-86.106
X223.52Y-87.884
X223.977Y-71.12
X223.977Y-74.168
X223.977Y-91.44
X223.977Y-96.52
X223.977Y-101.6
X223.977Y-106.68
X223.977Y-111.76
X224.028Y-76.962
X224.282Y-87.122
X225.044Y-76.962
X225.044Y-81.28
X225.044Y-82.296
X225.044Y-83.312
X225.044Y-84.328
X225.044Y-85.344
X225.044Y-86.36
X225.247Y-69.85
X225.247Y-88.9
X225.247Y-93.98
X225.247Y-99.06
X225.247Y-104.14
X225.247Y-109.22
X225.297Y-72.45
X225.297Y-75.438
X226.06Y-76.962
X226.06Y-81.28
X226.495Y-76.1
X226.517Y-91.44
X226.517Y-96.52
X226.517Y-101.6
X226.517Y-106.68
X226.517Y-111.76
X227.076Y-81.026
T3
X215.748Y-82.592
X215.748Y-83.192
X215.748Y-83.792
X215.748Y-84.392
X216.348Y-82.592
X216.348Y-83.192
X216.348Y-83.792
X216.348Y-84.392
T4
X168.376Y-59.525
X168.376Y-109.175
X169.035Y-57.934
X169.035Y-61.116
X169.035Y-107.584
X169.035Y-110.766
X170.626Y-57.275
X170.626Y-61.775
X170.626Y-106.925
X170.626Y-111.425
X172.217Y-57.934
X172.217Y-61.116
X172.217Y-107.584
X172.217Y-110.766
X172.876Y-59.525
X172.876Y-109.175
X221.203Y-65.345
X221.862Y-63.754
X221.862Y-66.936
X223.453Y-63.095
X223.453Y-67.595
X225.044Y-63.754
X225.044Y-66.936
X225.703Y-65.345
T5
X202.78Y-80.154
X203.58Y-81.954
X204.38Y-80.154
X205.18Y-81.954
X205.98Y-80.154
T6
X170.18Y-75.946
X172.72Y-75.946
X172.725Y-72.136
X175.26Y-75.946
X175.265Y-72.136
X195.326Y-78.08
X195.326Y-80.62
X195.326Y-83.16
X216.154Y-65.278
X216.154Y-67.818
X216.154Y-70.358
T7
X170.166Y-90.424
X170.166Y-92.964
T8
X170.626Y-59.525
X170.626Y-109.175
X223.453Y-65.345
T0
M30
